<?xml version="1.0" encoding="utf-8"?>
<!-- Generator: Adobe Illustrator 22.0.0, SVG Export Plug-In . SVG Version: 6.00 Build 0)  -->
<svg version="1.1" id="Layer_1" xmlns="http://www.w3.org/2000/svg" xmlns:xlink="http://www.w3.org/1999/xlink" x="0px" y="0px"
	 viewBox="0 0 392 754" style="enable-background:new 0 0 392 754;" xml:space="preserve">
<style type="text/css">
	.st0{fill:none;}
	.st1{fill:#377DFF;}
	.st2{fill:#2DCA8C;}
	.st3{fill:none;stroke:#FFBE3D;stroke-width:4;stroke-linecap:round;}
</style>
<path class="st0" d="M-125.2,350.6l-5.7-5.6c-1.6-1.5-2.4-3.4-2.4-5.6c0-2.2,0.7-4.1,2.3-5.7L132.3,65.2c1.5-1.6,3.4-2.4,5.6-2.4
	c2.2,0,4.1,0.7,5.7,2.3l526.9,516.8c1.6,1.5,2.4,3.4,2.4,5.6c0,2.2-0.7,4.1-2.3,5.7L407.3,861.6c-1.5,1.6-3.4,2.4-5.6,2.4
	c-2.2,0-4.1-0.7-5.7-2.3L-125.2,350.6z"/>
<path class="st1" d="M144.6,536c22.7-23.2,60-23.5,83.2-0.8l0,0c23.2,22.8,23.5,60,0.8,83.2l0,0c-22.7,23.2-60,23.5-83.2,0.8l0,0
	C122.3,596.4,121.9,559.2,144.6,536L144.6,536z"/>
<path class="st2" d="M103.5,198.7c45.5-46.3,119.9-47.1,166.3-1.6l-82.3,84L103.5,198.7z"/>
<path class="st3" d="M58.4,468.8l-1.3-142.1"/>
<path class="st3" d="M30.9,351.4l0.9,94.8"/>
<path class="st3" d="M5.2,419l-0.3-41.6"/>
<path class="st3" d="M17.5,430.5l-0.6-64.8"/>
<path class="st3" d="M84.5,443.1l-0.9-91.5"/>
<path class="st3" d="M71.1,460.6l-1.2-123.8"/>
<path class="st3" d="M44.7,458.9l-1.2-121.2"/>
<path class="st3" d="M112.5,418.2l-0.5-42.9"/>
<path class="st3" d="M99.1,429.7l-0.7-64.8"/>
</svg>
