<svg width="74" height="74" viewBox="0 0 74 74" fill="none" xmlns="http://www.w3.org/2000/svg">
<circle cx="37" cy="37" r="37" fill="#E5F1FF"/>
<path opacity="0.3" fill-rule="evenodd" clip-rule="evenodd" d="M21 37.5C21 32.9437 22.6109 29.0546 25.8327 25.8327C29.0546 22.6109 32.9437 21 37.5 21C42.0564 21 45.9454 22.6109 49.1673 25.8327C52.3891 29.0546 54 32.9437 54 37.5C54 42.0564 52.3891 45.9454 49.1673 49.1673C45.9454 52.3891 42.0564 54 37.5 54C32.9437 54 29.0546 52.3891 25.8327 49.1673C22.6109 45.9454 21 42.0564 21 37.5Z" fill="#377DFF"/>
<path fill-rule="evenodd" clip-rule="evenodd" d="M28.0738 41.5717C27.5734 40.8212 27.7762 39.8071 28.5268 39.3067C29.2774 38.8063 30.2914 39.0092 30.7918 39.7597C32.6818 42.5947 34.9118 43.9327 37.5998 43.9327C40.2878 43.9327 42.5178 42.5947 44.4078 39.7597C44.9082 39.0092 45.9223 38.8063 46.6728 39.3067C47.4234 39.8071 47.6262 40.8212 47.1258 41.5717C44.6598 45.2717 41.4448 47.1987 37.5998 47.1987C33.7548 47.1987 30.5398 45.2707 28.0738 41.5717Z" fill="#377DFF"/>
</svg>
