<svg width="80" height="80" viewBox="0 0 80 80" fill="none" xmlns="http://www.w3.org/2000/svg">
<circle cx="40" cy="40" r="40" fill="#FFF2D8"/>
<path opacity="0.3" fill-rule="evenodd" clip-rule="evenodd" d="M50.9169 33.3965C48.5349 33.3965 46.6039 31.4655 46.6039 29.0835C46.6039 26.7015 48.5349 24.7705 50.9169 24.7705C53.2989 24.7705 55.2299 26.7015 55.2299 29.0835C55.2299 31.4655 53.2989 33.3965 50.9169 33.3965H50.9169ZM50.9169 55.8245C48.5349 55.8245 46.6039 53.8935 46.6039 51.5115C46.6039 49.1295 48.5349 47.1985 50.9169 47.1985C53.2989 47.1985 55.2299 49.1295 55.2299 51.5115C55.2287 53.8956 53.2968 55.8257 50.9148 55.8245H50.9169ZM28.4889 55.8245C26.7445 55.8245 25.1718 54.7737 24.5042 53.162C23.8366 51.5504 24.2056 49.6953 25.4392 48.4618C26.6727 47.2282 28.5278 46.8592 30.1394 47.5268C31.7511 48.1944 32.8019 49.7671 32.8019 51.5115C32.8019 53.8935 30.8709 55.8245 28.4889 55.8245H28.4889Z" fill="#FFBE3D"/>
<path fill-rule="evenodd" clip-rule="evenodd" d="M28.4888 33.3965C26.1068 33.3965 24.1758 31.4655 24.1758 29.0835C24.1758 26.7015 26.1068 24.7705 28.4888 24.7705C30.8708 24.7705 32.8018 26.7015 32.8018 29.0835C32.8018 31.4655 30.8708 33.3965 28.4888 33.3965L28.4888 33.3965ZM37.9778 26.4965H41.4278C42.3802 26.4969 43.152 27.2692 43.152 28.2216C43.1519 29.174 42.38 29.9461 41.4276 29.9465H37.9758C37.0233 29.9462 36.2514 29.174 36.2513 28.2215C36.2513 27.2691 37.0233 26.4969 37.9757 26.4965L37.9778 26.4965ZM37.9778 50.6495H41.4278C42.3799 50.6503 43.1514 51.4223 43.1514 52.3745C43.1514 53.3266 42.38 54.0987 41.4279 54.0995H37.9758C37.0231 54.0995 36.2508 53.3272 36.2508 52.3745C36.2508 51.4218 37.0231 50.6495 37.9758 50.6495L37.9778 50.6495ZM27.6258 36.8475C28.5781 36.847 29.3507 37.6182 29.3518 38.5705V42.0205C29.3515 42.973 28.5792 43.7449 27.6268 43.7449C26.6743 43.7449 25.9021 42.973 25.9018 42.0205V38.5705C25.903 37.6188 26.6744 36.848 27.6259 36.8475L27.6258 36.8475ZM51.7788 36.8475C52.7311 36.847 53.5037 37.6182 53.5048 38.5705V42.0205C53.5048 42.9732 52.7325 43.7455 51.7798 43.7455C50.8271 43.7455 50.0548 42.9732 50.0548 42.0205V38.5705C50.0559 37.6201 50.8255 36.8497 51.7758 36.8475L51.7788 36.8475Z" fill="#FFBE3D"/>
</svg>
