<?xml version="1.0" encoding="utf-8"?>
<!-- Generator: Adobe Illustrator 22.0.0, SVG Export Plug-In . SVG Version: 6.00 Build 0)  -->
<svg version="1.1" id="Layer_1" xmlns="http://www.w3.org/2000/svg" xmlns:xlink="http://www.w3.org/1999/xlink" x="0px" y="0px"
	 viewBox="0 0 199 324" style="enable-background:new 0 0 199 324;" xml:space="preserve">
<style type="text/css">
	.st0{fill:#FFFFFF;filter:url(#Adobe_OpacityMaskFilter);}
	.st1{mask:url(#mask0_1_);}
	.st2{fill:#FFBE3D;}
	.st3{fill:#FFFFFF;filter:url(#Adobe_OpacityMaskFilter_1_);}
	.st4{mask:url(#mask1_1_);}
	.st5{fill:none;stroke:#FFFFFF;stroke-width:5.75;}
	.st6{fill:#FFFFFF;filter:url(#Adobe_OpacityMaskFilter_2_);}
	.st7{mask:url(#mask2_1_);}
	.st8{fill:#FFFFFF;filter:url(#Adobe_OpacityMaskFilter_3_);}
	.st9{mask:url(#mask3_1_);}
	.st10{fill:none;stroke:#FFFFFF;stroke-width:7;}
	.st11{fill:#FFFFFF;filter:url(#Adobe_OpacityMaskFilter_4_);}
	.st12{mask:url(#mask4_1_);}
	.st13{fill:#FFFFFF;filter:url(#Adobe_OpacityMaskFilter_5_);}
	.st14{mask:url(#mask5_1_);}
	.st15{fill:none;stroke:#2DCA8C;stroke-width:7;stroke-linecap:round;}
</style>
<defs>
	<filter id="Adobe_OpacityMaskFilter" filterUnits="userSpaceOnUse" x="33.4" y="27.4" width="235" height="253.7">
		<feColorMatrix  type="matrix" values="1 0 0 0 0  0 1 0 0 0  0 0 1 0 0  0 0 0 1 0"/>
	</filter>
</defs>
<mask maskUnits="userSpaceOnUse" x="33.4" y="27.4" width="235" height="253.7" id="mask0_1_">
	<rect x="2.7" y="-44.1" class="st0" width="197.2" height="323.1"/>
</mask>
<g class="st1">
	<path class="st2" d="M208,253.4c-13.2-13.7-26.2-27-45.7-31.9c-14.2-3.5-29.1-1.9-42.3,4.4c-17.2,8.3-31.7,26.2-52,26.5
		c-10.8,0.1-21-5-27.4-13.7c-16.6-22.8-2.2-47.1,14.9-64.6c20-20.5,45.6-38,45.5-69.9c-0.1-18.8-11.6-39.1-5.2-58
		c9.4-27.7,45.3-18.9,65.2-10.3c18,7.9,35.4,16.1,51.8,27.2c8.5,5.8,16.5,12.8,21,22.1c11.1,22.7-9.6,38.1-15.9,58.2
		c-3.2,10.6-2.6,22.1,1.9,32.3c7.8,18.7,22.6,33.9,35.8,49c12.7,14.6,18.3,42.3-4.5,50.9c-10.5,4-20.9-1-28.6-8.1
		C217.4,263.2,212.7,258.1,208,253.4z"/>
	<defs>
		<filter id="Adobe_OpacityMaskFilter_1_" filterUnits="userSpaceOnUse" x="87.5" y="29.1" width="146.1" height="112.2">
			<feColorMatrix  type="matrix" values="1 0 0 0 0  0 1 0 0 0  0 0 1 0 0  0 0 0 1 0"/>
		</filter>
	</defs>
	<mask maskUnits="userSpaceOnUse" x="87.5" y="29.1" width="146.1" height="112.2" id="mask1_1_">
		<path class="st3" d="M208,253.4c-13.2-13.7-26.2-27-45.7-31.9c-14.2-3.5-29.1-1.9-42.3,4.4c-17.2,8.3-31.7,26.2-52,26.5
			c-10.8,0.1-21-5-27.4-13.7c-16.6-22.8-2.2-47.1,14.9-64.6c20-20.5,45.6-38,45.5-69.9c-0.1-18.8-11.6-39.1-5.2-58
			c9.4-27.7,45.3-18.9,65.2-10.3c18,7.9,35.4,16.1,51.8,27.2c8.5,5.8,16.5,12.8,21,22.1c11.1,22.7-9.6,38.1-15.9,58.2
			c-3.2,10.6-2.6,22.1,1.9,32.3c7.8,18.7,22.6,33.9,35.8,49c12.7,14.6,18.3,42.3-4.5,50.9c-10.5,4-20.9-1-28.6-8.1
			C217.4,263.2,212.7,258.1,208,253.4z"/>
	</mask>
	<g class="st4">
		<path class="st5" d="M230.8,141c0,0-3.8-33.9-65.6-41.5S90.3,29.7,90.3,29.7"/>
	</g>
	<defs>
		<filter id="Adobe_OpacityMaskFilter_2_" filterUnits="userSpaceOnUse" x="81.7" y="57.7" width="146.1" height="112.2">
			<feColorMatrix  type="matrix" values="1 0 0 0 0  0 1 0 0 0  0 0 1 0 0  0 0 0 1 0"/>
		</filter>
	</defs>
	<mask maskUnits="userSpaceOnUse" x="81.7" y="57.7" width="146.1" height="112.2" id="mask2_1_">
		<path class="st6" d="M208,253.4c-13.2-13.7-26.2-27-45.7-31.9c-14.2-3.5-29.1-1.9-42.3,4.4c-17.2,8.3-31.7,26.2-52,26.5
			c-10.8,0.1-21-5-27.4-13.7c-16.6-22.8-2.2-47.1,14.9-64.6c20-20.5,45.6-38,45.5-69.9c-0.1-18.8-11.6-39.1-5.2-58
			c9.4-27.7,45.3-18.9,65.2-10.3c18,7.9,35.4,16.1,51.8,27.2c8.5,5.8,16.5,12.8,21,22.1c11.1,22.7-9.6,38.1-15.9,58.2
			c-3.2,10.6-2.6,22.1,1.9,32.3c7.8,18.7,22.6,33.9,35.8,49c12.7,14.6,18.3,42.3-4.5,50.9c-10.5,4-20.9-1-28.6-8.1
			C217.4,263.2,212.7,258.1,208,253.4z"/>
	</mask>
	<g class="st7">
		<path class="st5" d="M225,169.6c0,0-3.8-33.9-65.6-41.5S84.6,58.3,84.6,58.3"/>
	</g>
	<defs>
		<filter id="Adobe_OpacityMaskFilter_3_" filterUnits="userSpaceOnUse" x="86.9" y="97.8" width="181.5" height="137">
			<feColorMatrix  type="matrix" values="1 0 0 0 0  0 1 0 0 0  0 0 1 0 0  0 0 0 1 0"/>
		</filter>
	</defs>
	<mask maskUnits="userSpaceOnUse" x="86.9" y="97.8" width="181.5" height="137" id="mask3_1_">
		<path class="st8" d="M208,253.4c-13.2-13.7-26.2-27-45.7-31.9c-14.2-3.5-29.1-1.9-42.3,4.4c-17.2,8.3-31.7,26.2-52,26.5
			c-10.8,0.1-21-5-27.4-13.7c-16.6-22.8-2.2-47.1,14.9-64.6c20-20.5,45.6-38,45.5-69.9c-0.1-18.8-11.6-39.1-5.2-58
			c9.4-27.7,45.3-18.9,65.2-10.3c18,7.9,35.4,16.1,51.8,27.2c8.5,5.8,16.5,12.8,21,22.1c11.1,22.7-9.6,38.1-15.9,58.2
			c-3.2,10.6-2.6,22.1,1.9,32.3c7.8,18.7,22.6,33.9,35.8,49c12.7,14.6,18.3,42.3-4.5,50.9c-10.5,4-20.9-1-28.6-8.1
			C217.4,263.2,212.7,258.1,208,253.4z"/>
	</mask>
	<g class="st9">
		<path class="st10" d="M264.9,234.5c0,0-4.7-41.3-81.5-50.7c-76.9-9.4-93-85.2-93-85.2"/>
	</g>
	<defs>
		<filter id="Adobe_OpacityMaskFilter_4_" filterUnits="userSpaceOnUse" x="59.4" y="144.1" width="181.4" height="137">
			<feColorMatrix  type="matrix" values="1 0 0 0 0  0 1 0 0 0  0 0 1 0 0  0 0 0 1 0"/>
		</filter>
	</defs>
	<mask maskUnits="userSpaceOnUse" x="59.4" y="144.1" width="181.4" height="137" id="mask4_1_">
		<path class="st11" d="M208,253.4c-13.2-13.7-26.2-27-45.7-31.9c-14.2-3.5-29.1-1.9-42.3,4.4c-17.2,8.3-31.7,26.2-52,26.5
			c-10.8,0.1-21-5-27.4-13.7c-16.6-22.8-2.2-47.1,14.9-64.6c20-20.5,45.6-38,45.5-69.9c-0.1-18.8-11.6-39.1-5.2-58
			c9.4-27.7,45.3-18.9,65.2-10.3c18,7.9,35.4,16.1,51.8,27.2c8.5,5.8,16.5,12.8,21,22.1c11.1,22.7-9.6,38.1-15.9,58.2
			c-3.2,10.6-2.6,22.1,1.9,32.3c7.8,18.7,22.6,33.9,35.8,49c12.7,14.6,18.3,42.3-4.5,50.9c-10.5,4-20.9-1-28.6-8.1
			C217.4,263.2,212.7,258.1,208,253.4z"/>
	</mask>
	<g class="st12">
		<path class="st10" d="M237.3,280.7c0,0-4.7-41.3-81.5-50.7s-93-85.2-93-85.2"/>
	</g>
</g>
<defs>
	<filter id="Adobe_OpacityMaskFilter_5_" filterUnits="userSpaceOnUse" x="6.4" y="74.2" width="54" height="113.8">
		<feColorMatrix  type="matrix" values="1 0 0 0 0  0 1 0 0 0  0 0 1 0 0  0 0 0 1 0"/>
	</filter>
</defs>
<mask maskUnits="userSpaceOnUse" x="6.4" y="74.2" width="54" height="113.8" id="mask5_1_">
	<rect x="2.7" y="-44.1" class="st13" width="197.2" height="323.1"/>
</mask>
<g class="st14">
	<path class="st15" d="M56.9,131.4l-47,53"/>
	<path class="st15" d="M56.9,104.5l-47,53.1"/>
	<path class="st15" d="M56.9,77.7l-47,53"/>
</g>
</svg>
