<svg width="80" height="80" viewBox="0 0 80 80" fill="none" xmlns="http://www.w3.org/2000/svg">
<circle cx="40" cy="40" r="40" fill="#E5F1FF"/>
<path opacity="0.3" fill-rule="evenodd" clip-rule="evenodd" d="M31.666 38.3328H45C46.8408 38.3328 48.333 36.8406 48.333 34.9998V33.3328H51.666V34.9998C51.666 38.6819 48.6811 41.6668 44.999 41.6668H31.666V44.9998C31.6439 45.9043 30.9043 46.626 29.9995 46.626C29.0948 46.626 28.3552 45.9043 28.333 44.9998V34.9998C28.3182 34.3947 28.6325 33.8291 29.1543 33.5222C29.676 33.2153 30.3231 33.2153 30.8448 33.5222C31.3665 33.8291 31.6808 34.3947 31.666 34.9998V38.3328Z" fill="#377DFF"/>
<path fill-rule="evenodd" clip-rule="evenodd" d="M30 55C31.8408 55 33.333 53.5078 33.333 51.667C33.333 49.8263 31.8408 48.334 30 48.334C28.1592 48.334 26.667 49.8263 26.667 51.667C26.667 53.5078 28.1592 55 30 55H30ZM30 58.333C26.3179 58.333 23.333 55.3481 23.333 51.666C23.333 47.9839 26.3179 44.999 30 44.999C33.6821 44.999 36.667 47.9839 36.667 51.666C36.667 55.3481 33.6821 58.333 30 58.333H30Z" fill="#377DFF"/>
<path fill-rule="evenodd" clip-rule="evenodd" d="M50 31.667C51.8408 31.667 53.333 30.1748 53.333 28.334C53.333 26.4932 51.8408 25.001 50 25.001C48.1592 25.001 46.667 26.4933 46.667 28.334C46.667 30.1748 48.1592 31.667 50 31.667ZM50 35C46.3179 35 43.333 32.0151 43.333 28.333C43.333 24.6509 46.3179 21.666 50 21.666C53.6821 21.666 56.667 24.6509 56.667 28.333C56.667 32.0151 53.6821 35 50 35H50Z" fill="#377DFF"/>
<path fill-rule="evenodd" clip-rule="evenodd" d="M30 31.667C31.8406 31.6665 33.3324 30.174 33.332 28.3333C33.3316 26.4927 31.8393 25.0008 29.9987 25.001C28.158 25.0012 26.666 26.4934 26.666 28.334C26.666 29.2182 27.0173 30.0661 27.6426 30.6912C28.2679 31.3162 29.1159 31.6673 30 31.667H30ZM30 35C26.3179 35 23.333 32.0151 23.333 28.333C23.333 24.6509 26.3179 21.666 30 21.666C33.6821 21.666 36.667 24.6509 36.667 28.333C36.667 32.0151 33.6821 35 30 35H30Z" fill="#377DFF"/>
</svg>
