<svg width="80" height="80" viewBox="0 0 80 80" fill="none" xmlns="http://www.w3.org/2000/svg">
<circle cx="40" cy="40" r="40" fill="#E5F1FF"/>
<path fill-rule="evenodd" clip-rule="evenodd" d="M27.958 53.0422H54.833C55.4831 53.0268 56.0906 53.3649 56.4201 53.9255C56.7497 54.4861 56.7497 55.1812 56.4201 55.7418C56.0906 56.3025 55.4831 56.6405 54.833 56.6252H26.167C25.1773 56.6252 24.375 55.8228 24.375 54.8332L24.375 26.1672C24.398 25.1942 25.1933 24.4175 26.1665 24.4175C27.1397 24.4175 27.935 25.1942 27.958 26.1672V53.0422Z" fill="#377DFF"/>
<path opacity="0.3" fill-rule="evenodd" clip-rule="evenodd" d="M34.6421 45.3091C33.9608 46.0085 32.845 46.0338 32.1327 45.3659C31.4204 44.6981 31.3739 43.5829 32.0281 42.8581L38.7421 35.6911C39.3965 34.993 40.4839 34.9322 41.2121 35.5531L46.5121 40.0781L53.4211 31.3261C54.0341 30.5471 55.1626 30.4125 55.9416 31.0256C56.7206 31.6386 56.8551 32.7671 56.2421 33.5461L48.1771 43.7601C47.8753 44.1422 47.431 44.3851 46.9464 44.4328C46.4618 44.4805 45.9786 44.329 45.6081 44.0131L40.1901 39.3901L34.6421 45.3091Z" fill="#377DFF"/>
</svg>
