<svg width="74" height="74" viewBox="0 0 74 74" fill="none" xmlns="http://www.w3.org/2000/svg">
<circle cx="37" cy="37" r="37" fill="#FFE3DE"/>
<path opacity="0.3" fill-rule="evenodd" clip-rule="evenodd" d="M29.7401 21.083C29.1702 21.0819 28.6234 21.3076 28.2201 21.7101C27.8167 22.1127 27.5901 22.6592 27.5901 23.229V51.561C27.5901 52.132 27.8169 52.6786 28.2204 53.0812C28.6239 53.4838 29.1711 53.7093 29.7411 53.708L43.4731 53.708C44.6583 53.708 45.6191 52.7472 45.6191 51.562V23.229C45.6191 22.0438 44.6583 21.083 43.4731 21.083H29.7401Z" fill="#FF715B"/>
<path fill-rule="evenodd" clip-rule="evenodd" d="M29.7369 21.0831C28.5517 21.0831 27.5909 22.0439 27.5909 23.2291V51.5611C27.5909 52.7463 28.5517 53.7071 29.7369 53.7071H43.4739C44.6591 53.7071 45.6199 52.7463 45.6199 51.5611V23.2291C45.6199 22.0439 44.6591 21.0831 43.4739 21.0831L29.7369 21.0831ZM29.7369 18.5071H43.4739C46.0818 18.5071 48.1959 20.6212 48.1959 23.2291V51.5611C48.1959 54.169 46.0818 56.2831 43.4739 56.2831H29.7369C27.129 56.2831 25.0149 54.169 25.0149 51.5611V23.2291C25.0149 20.6212 27.129 18.5071 29.7369 18.5071ZM32.3129 19.7951H40.8979C41.3723 19.7951 41.7569 20.1797 41.7569 20.6541V22.3701C41.7569 22.8445 41.3723 23.2291 40.8979 23.2291H32.3129C31.8385 23.2291 31.4539 22.8445 31.4539 22.3701L31.4539 20.6531C31.4544 20.1791 31.8388 19.7951 32.3128 19.7951L32.3129 19.7951Z" fill="#FF715B"/>
</svg>
