<svg width="80" height="80" viewBox="0 0 80 80" fill="none" xmlns="http://www.w3.org/2000/svg">
<circle cx="40" cy="40" r="40" fill="#FFE3DE"/>
<path fill-rule="evenodd" clip-rule="evenodd" d="M47.7699 49.6214L38.1299 39.9794V26.2184C38.1302 25.2582 38.9087 24.48 39.8689 24.48C40.8291 24.48 41.6076 25.2582 41.6079 26.2184L41.6079 38.5414L50.2299 47.1624L54.0369 43.3554C54.2858 43.1075 54.6594 43.0336 54.984 43.1681C55.3085 43.3026 55.5203 43.6191 55.5209 43.9704V53.1704C55.5209 53.6509 55.1314 54.0404 54.6509 54.0404L45.4509 54.0404C45.0998 54.0411 44.7827 53.8306 44.6469 53.5068C44.5111 53.183 44.5833 52.8094 44.8299 52.5594L47.7699 49.6214Z" fill="#FF715B"/>
<path opacity="0.3" fill-rule="evenodd" clip-rule="evenodd" d="M31.6 49.0783L35.081 52.5593C35.329 52.8082 35.4029 53.1818 35.2684 53.5064C35.1339 53.8309 34.8174 54.0427 34.466 54.0433L25.139 54.0433C24.6586 54.0433 24.269 53.6538 24.269 53.1733V43.8463C24.2696 43.4949 24.4814 43.1784 24.806 43.0439C25.1305 42.9094 25.5042 42.9833 25.7531 43.2313L29.132 46.6113L34.399 42.1553L36.646 44.8103L31.6 49.0783Z" fill="#FF715B"/>
</svg>
