<svg width="80" height="80" viewBox="0 0 80 80" fill="none" xmlns="http://www.w3.org/2000/svg">
<circle cx="40" cy="40" r="40" fill="#FFE3DE"/>
<path opacity="0.3" fill-rule="evenodd" clip-rule="evenodd" d="M28.5842 41.8218C24.4281 39.1397 22.5604 34.0225 24.0118 29.2938C25.4632 24.5651 29.8801 21.3768 34.8252 21.4882C39.7704 21.5996 44.0392 24.9835 45.2762 29.7728L49.7682 29.7728C53.5814 29.774 56.6719 32.8655 56.672 36.6787C56.672 40.4918 53.5816 43.5834 49.7685 43.5848H33.1932C31.4917 43.5873 29.8497 42.9592 28.5842 41.8218L28.5842 41.8218Z" fill="#FF715B"/>
<path fill-rule="evenodd" clip-rule="evenodd" d="M34.6329 53.6989H38.2329V57.3959C38.2329 57.6407 38.3304 57.8754 38.5037 58.0482C38.6771 58.221 38.9121 58.3177 39.1569 58.3169H41.0409C41.5496 58.3169 41.9619 57.9045 41.9619 57.3959V53.6959H45.5619C45.92 53.6947 46.245 53.4861 46.3951 53.161C46.5452 52.8359 46.4933 52.4532 46.2619 52.1799L40.8009 45.7269C40.6259 45.5205 40.369 45.4015 40.0984 45.4015C39.8278 45.4015 39.5709 45.5205 39.3959 45.7269L33.9299 52.1829C33.6986 52.4562 33.6466 52.8389 33.7968 53.164C33.9469 53.4891 34.2718 53.6977 34.6299 53.6989H34.6329Z" fill="#FF715B"/>
</svg>
