<svg width="80" height="80" viewBox="0 0 80 80" fill="none" xmlns="http://www.w3.org/2000/svg">
<circle cx="40" cy="40" r="40" fill="#EAFAF3"/>
<path opacity="0.3" fill-rule="evenodd" clip-rule="evenodd" d="M23.8013 39.0288L27.7793 35.0508C28.3066 34.5234 29.0219 34.2271 29.7678 34.2271C30.5136 34.2271 31.2289 34.5234 31.7563 35.0508L35.7333 39.0288C36.2607 39.5561 36.557 40.2714 36.557 41.0173C36.557 41.7631 36.2607 42.4784 35.7333 43.0058L31.7563 46.9828C31.2289 47.5102 30.5136 47.8065 29.7678 47.8065C29.0219 47.8065 28.3066 47.5102 27.7793 46.9828L23.8013 43.0058C23.2738 42.4784 22.9775 41.7631 22.9775 41.0173C22.9775 40.2714 23.2738 39.5561 23.8013 39.0288H23.8013ZM46.3013 39.0288L50.2783 35.0508C50.8056 34.5234 51.5209 34.2271 52.2668 34.2271C53.0126 34.2271 53.7279 34.5234 54.2553 35.0508L58.2323 39.0288C58.7597 39.5561 59.056 40.2714 59.056 41.0173C59.056 41.7631 58.7597 42.4784 58.2323 43.0058L54.2563 46.9828C53.7289 47.5102 53.0136 47.8065 52.2678 47.8065C51.5219 47.8065 50.8066 47.5102 50.2793 46.9828L46.3013 43.0058C45.7738 42.4784 45.4775 41.7631 45.4775 41.0173C45.4775 40.2714 45.7738 39.5561 46.3013 39.0288H46.3013Z" fill="#2DCA8C"/>
<path fill-rule="evenodd" clip-rule="evenodd" d="M35.0513 50.2788L39.0293 46.3018C39.5566 45.7743 40.2719 45.478 41.0178 45.478C41.7636 45.478 42.4789 45.7743 43.0063 46.3018L46.9833 50.2788C47.5107 50.8061 47.807 51.5214 47.807 52.2673C47.807 53.0131 47.5107 53.7284 46.9833 54.2558L43.0063 58.2328C42.4789 58.7602 41.7636 59.0565 41.0178 59.0565C40.2719 59.0565 39.5566 58.7602 39.0293 58.2328L35.0513 54.2558C34.5238 53.7284 34.2275 53.0131 34.2275 52.2673C34.2275 51.5214 34.5238 50.8061 35.0513 50.2788ZM35.0513 27.7788L39.0293 23.8018C39.5566 23.2743 40.2719 22.978 41.0178 22.978C41.7636 22.978 42.4789 23.2743 43.0063 23.8018L46.9833 27.7788C47.5107 28.3061 47.807 29.0214 47.807 29.7673C47.807 30.5131 47.5107 31.2284 46.9833 31.7558L43.0063 35.7338C42.4789 36.2612 41.7636 36.5575 41.0178 36.5575C40.2719 36.5575 39.5566 36.2612 39.0293 35.7338L35.0513 31.7558C34.5238 31.2284 34.2275 30.5131 34.2275 29.7673C34.2275 29.0214 34.5238 28.3061 35.0513 27.7788Z" fill="#2DCA8C"/>
</svg>
