<?xml version="1.0" encoding="utf-8"?>
<!-- Generator: Adobe Illustrator 22.0.0, SVG Export Plug-In . SVG Version: 6.00 Build 0)  -->
<svg version="1.1" id="Layer_1" xmlns="http://www.w3.org/2000/svg" xmlns:xlink="http://www.w3.org/1999/xlink" x="0px" y="0px"
	 viewBox="0 0 1055 1242.4" style="enable-background:new 0 0 1055 1242.4;" xml:space="preserve">
<style type="text/css">
	.st0{fill:#FFFFFF;filter:url(#Adobe_OpacityMaskFilter);}
	.st1{mask:url(#mask0_1_);}
	.st2{fill:#2DCA8C;}
	.st3{fill:#FFFFFF;filter:url(#Adobe_OpacityMaskFilter_1_);}
	.st4{mask:url(#mask1_1_);}
	.st5{fill:#FFFFFF;}
	.st6{fill:#FFFFFF;filter:url(#Adobe_OpacityMaskFilter_2_);}
	.st7{mask:url(#mask2_1_);}
	.st8{fill:#FFBE3D;}
	.st9{fill:#FFFFFF;filter:url(#Adobe_OpacityMaskFilter_3_);}
	.st10{mask:url(#mask3_1_);}
	.st11{fill:none;stroke:#00DFFC;}
	.st12{fill:#FFFFFF;filter:url(#Adobe_OpacityMaskFilter_4_);}
	.st13{mask:url(#mask4_1_);}
	.st14{fill:#377DFF;}
	.st15{fill:none;stroke:#FFFFFF;stroke-width:5.75;}
	.st16{fill:none;stroke:#FFFFFF;stroke-width:7;}
	.st17{fill:none;stroke:#2DCA8C;stroke-width:7;stroke-linecap:round;}
</style>
<defs>
	<filter id="Adobe_OpacityMaskFilter" filterUnits="userSpaceOnUse" x="551" y="11.2" width="177.9" height="182.1">
		<feColorMatrix  type="matrix" values="1 0 0 0 0  0 1 0 0 0  0 0 1 0 0  0 0 0 1 0"/>
	</filter>
</defs>
<mask maskUnits="userSpaceOnUse" x="551" y="11.2" width="177.9" height="182.1" id="mask0_1_">
	<rect x="511.2" y="11.2" class="st0" width="324.5" height="235.1"/>
</mask>
<g class="st1">
	<path class="st2" d="M719.3,103.7c6.1,17.2,14,42.8,6.7,59.7c-5.6,13.1-16,32.3-29.1,29.7c-11-14.2-33.5-44-48-55.6
		c-12-9.6-30.3-19.5-41.9-30C578.2,81.6,567,46.4,551,11.2c29.2,3,58.2,8.4,86.5,16.3c18.4,5.2,37.3,12,51.2,24.8
		C704.1,65.5,712.9,84.5,719.3,103.7z"/>
</g>
<defs>
	<filter id="Adobe_OpacityMaskFilter_1_" filterUnits="userSpaceOnUse" x="552.5" y="11.7" width="163.9" height="160.5">
		<feColorMatrix  type="matrix" values="1 0 0 0 0  0 1 0 0 0  0 0 1 0 0  0 0 0 1 0"/>
	</filter>
</defs>
<mask maskUnits="userSpaceOnUse" x="552.5" y="11.7" width="163.9" height="160.5" id="mask1_1_">
	<rect x="511.2" y="11.2" class="st3" width="324.5" height="235.1"/>
</mask>
<g class="st4">
	<path class="st5" d="M552.8,12.7C586.8,28.9,618,49.9,644.7,76c29,28.6,48.4,62.2,70.2,95.8c0.3,1,2.3,0,1.3-1
		C679,101.3,626.6,42.7,552.8,11.7C552.8,11.8,552.1,12.1,552.8,12.7L552.8,12.7z"/>
	<path class="st5" d="M572.5,56.9c23.4-1.3,43.8-0.3,64.3,12.5c1.3,1,2.6-1.3,1.3-2.3c-18.1-11.9-44.5-19.1-65.9-11.9
		C571.6,55.9,571.6,56.9,572.5,56.9L572.5,56.9z"/>
	<path class="st5" d="M609.1,95.8c11.2,0,22.1-0.3,32.9,2.3c9.9,2.3,19.5,5.9,29.3,9.5c1.3,0.3,1.7-1.3,0.3-2.3
		c-19.8-7.2-42.2-15.8-63.2-10.5C608.8,95.4,608.8,95.8,609.1,95.8z"/>
	<path class="st5" d="M652.6,130.4c7.8,0.4,15.7,1.3,23.4,2.6c8.9,1.7,14.8,6.2,20.7,13.1c1,1,2.6-0.3,1.7-1.7
		c-5.3-6.2-10.9-10.9-19.5-13.1c-8.8-1.7-17.8-2.3-26.7-1.7C652.3,129.4,652.3,130.4,652.6,130.4L652.6,130.4z"/>
	<path class="st5" d="M620.6,29.9c0.3,8.6,5,17.1,8.3,25c2.3,5,4,13.5,10.5,14.5c0.3,0,1-0.3,0.3-1c-10.9-8.9-11.2-26.7-18.4-38.6
		C621.3,29.2,620.6,29.2,620.6,29.9L620.6,29.9z"/>
	<path class="st5" d="M655.9,40.1c2.3,23.4,9.5,46.4,17.8,68.2c0.3,1,2.3,0.3,1.7-0.3c-8.6-22.1-13.1-44.8-18.4-67.9
		C656.6,39.8,655.9,39.8,655.9,40.1z"/>
	<path class="st5" d="M693.8,89.5c0,19.8,5,40.2,8.3,59.6c0.3,1.3,2.6,1,2.3-0.3c-3.6-19.8-6.2-39.2-9.5-59.3
		C694.7,88.5,693.8,88.5,693.8,89.5z"/>
</g>
<defs>
	<filter id="Adobe_OpacityMaskFilter_2_" filterUnits="userSpaceOnUse" x="463.6" y="141.6" width="423.6" height="370.3">
		<feColorMatrix  type="matrix" values="1 0 0 0 0  0 1 0 0 0  0 0 1 0 0  0 0 0 1 0"/>
	</filter>
</defs>
<mask maskUnits="userSpaceOnUse" x="463.6" y="141.6" width="423.6" height="370.3" id="mask2_1_">
	<rect x="511.2" y="11.2" class="st6" width="324.5" height="235.1"/>
</mask>
<g class="st7">
	<path class="st8" d="M820.2,329.9c-28.1-3.7-55.8-7.6-79.2-26.6c-16.9-13.9-28.4-33.3-32.5-54.8c-5.4-28,3.2-61.5-14.6-86.2
		c-9.4-13.2-24.7-20.9-40.9-20.7c-42.3,0.4-58.4,39.4-64.3,75.5c-6.7,42.4-5,88.8-43.4,117c-22.7,16.7-57.4,21-74.4,45.5
		c-24.8,36,17.8,71.3,46.1,87.7c25.6,14.8,51.1,28.2,79.1,38.1c14.6,5.1,30.2,8.3,45.4,5.6c37.3-6.8,37.1-45.6,55.8-71
		c9.9-13.6,24.2-22.5,40.4-26.4c29.6-7.2,61-2.9,90.9-0.6c28.6,2.2,66.9-16,56.8-51c-4.6-16.1-19.9-24.2-35.3-27.3
		C840.3,332.6,830.2,331.2,820.2,329.9z"/>
</g>
<defs>
	<filter id="Adobe_OpacityMaskFilter_3_" filterUnits="userSpaceOnUse" x="510.7" y="146" width="376.1" height="343">
		<feColorMatrix  type="matrix" values="1 0 0 0 0  0 1 0 0 0  0 0 1 0 0  0 0 0 1 0"/>
	</filter>
</defs>
<mask maskUnits="userSpaceOnUse" x="510.7" y="146" width="376.1" height="343" id="mask3_1_">
	<rect x="511.2" y="11.2" class="st9" width="324.5" height="235.1"/>
</mask>
<g class="st10">
	<path class="st11" d="M701.6,161.5c51-37.6,123.6-0.3,121.2,63.1c0,0.8-0.1,1.7-0.1,2.4c-4.8,80,108,93.8,43.7,131.9
		s4.3,64.8-60.3,90.4c-64.7,25.6-101.3,78.5-180.3-10.2c-71.9-80.8-126.2-48.8-112.5-117.6c2.6-12.8,4-25.8,4.1-38.9
		c0.1-21.6,10.8-60,80.5-75C635.4,199.8,670.7,184.1,701.6,161.5L701.6,161.5z"/>
</g>
<defs>
	<filter id="Adobe_OpacityMaskFilter_4_" filterUnits="userSpaceOnUse" x="511.2" y="146.5" width="375.1" height="342">
		<feColorMatrix  type="matrix" values="1 0 0 0 0  0 1 0 0 0  0 0 1 0 0  0 0 0 1 0"/>
	</filter>
</defs>
<mask maskUnits="userSpaceOnUse" x="511.2" y="146.5" width="375.1" height="342" id="mask4_1_">
	<rect x="511.2" y="11.2" class="st12" width="324.5" height="235.1"/>
</mask>
<g class="st13">
	<path class="st14" d="M701.6,161.5c51-37.6,123.6-0.3,121.2,63.1c0,0.8-0.1,1.7-0.1,2.4c-4.8,80,108,93.8,43.7,131.9
		s4.3,64.8-60.3,90.4c-64.7,25.6-101.3,78.5-180.3-10.2c-71.9-80.8-126.2-48.8-112.5-117.6c2.6-12.8,4-25.8,4.1-38.9
		c0.1-21.6,10.8-60,80.5-75C635.4,199.8,670.7,184.1,701.6,161.5L701.6,161.5z"/>
</g>
<g>
	<path class="st8" d="M361.6,1198.6c-13.2-13.7-26.2-27-45.7-31.9c-14.2-3.5-29.1-1.9-42.3,4.4c-17.2,8.3-31.7,26.2-52,26.5
		c-10.8,0.1-21-5-27.4-13.7c-16.6-22.8-2.2-47.1,14.9-64.6c20-20.5,45.6-38,45.5-69.9c-0.1-18.8-11.6-39.1-5.2-58
		c9.4-27.7,45.3-18.9,65.2-10.3c18,7.9,35.4,16.1,51.8,27.2c8.5,5.8,16.5,12.8,21,22.1c11.1,22.7-9.6,38.1-15.9,58.2
		c-3.2,10.6-2.6,22.1,1.9,32.3c7.8,18.7,22.6,33.9,35.8,49c12.7,14.6,18.3,42.3-4.5,50.9c-10.5,4-20.9-1-28.6-8.1
		C371,1208.4,366.3,1203.3,361.6,1198.6z"/>
	<g>
		<path class="st15" d="M384.4,1086.2c0,0-3.8-33.9-65.6-41.5s-74.9-69.8-74.9-69.8"/>
	</g>
	<g>
		<path class="st15" d="M378.6,1114.8c0,0-3.8-33.9-65.6-41.5s-74.8-69.8-74.8-69.8"/>
	</g>
	<g>
		<path class="st16" d="M418.5,1179.7c0,0-4.7-41.3-81.5-50.7c-76.9-9.4-93-85.2-93-85.2"/>
	</g>
	<g>
		<path class="st16" d="M390.9,1225.9c0,0-4.7-41.3-81.5-50.7s-93-85.2-93-85.2"/>
	</g>
</g>
<g>
	<path class="st17" d="M543.1,164.5"/>
	<path class="st17" d="M590.1,111.5"/>
	<path class="st17" d="M543.1,137.7"/>
	<path class="st17" d="M590.1,84.6"/>
	<path class="st17" d="M543.1,110.8"/>
	<path class="st17" d="M590.1,57.8"/>
</g>
</svg>
