<?xml version="1.0" encoding="utf-8"?>
<!-- Generator: Adobe Illustrator 22.0.0, SVG Export Plug-In . SVG Version: 6.00 Build 0)  -->
<svg version="1.1" id="Layer_1" xmlns="http://www.w3.org/2000/svg" xmlns:xlink="http://www.w3.org/1999/xlink" x="0px" y="0px"
	 viewBox="0 0 187.5 55" style="enable-background:new 0 0 187.5 55;" xml:space="preserve">
<style type="text/css">
	.st0{fill:#3B82F6;}
	.st1{fill:#FFFFFF;}
	.st2{fill:#93C5FD;}
	.st3{fill:#DBEAFE;}
</style>
<g>
	<path class="st0" d="M55,27.5C55,42.7,42.7,55,27.5,55S0,42.7,0,27.5C0,11.2,14.5,0.3,27.5,0h14.1v13.8H55V27.5z"/>
	<g id="XMLID_1_">
		<g>
			<path class="st1" d="M41.9,28.5c0,0-1.2,10.9-12.7,12.9h-0.1v-14l12.8-13.7V28.5z"/>
			<polygon class="st2" points="29.2,27.4 29.2,41.4 14.4,27.4 			"/>
			<path class="st3" d="M14.4,27.4L14.4,27.4c0,0,0.2-11.3,12.1-13.7H42L29.2,27.4H14.4z"/>
			<polygon class="st2" points="14.4,27.4 14.4,27.4 29.2,41.4 14.4,41.4 			"/>
		</g>
	</g>
</g>
<g>
	<path d="M76.8,38.7l4.4-1.1c0.6,1.1,1.9,2.5,4.8,2.5c2.8,0,4.8-1.3,4.8-4.2V32h-0.2c-0.8,1.5-2.4,3.4-6,3.4
		c-4.8,0-8.5-3.4-8.5-10.1c0-6.8,3.8-10.6,8.6-10.6c3.7,0,5.2,2.2,5.9,3.7h0.3V15h4.8v21.1c0,5.2-4.1,7.8-9.7,7.8
		C80.7,43.8,77.7,41.5,76.8,38.7z M90.9,25.2c0-3.9-1.7-6.5-4.9-6.5c-3.3,0-4.9,2.8-4.9,6.5c0,3.8,1.7,6.3,4.9,6.3
		C89.1,31.6,90.9,29.2,90.9,25.2z"/>
	<path d="M114.3,15h4.9v20.7h-4.7V32h-0.2c-0.9,2.3-3.1,4-6.2,4c-4.1,0-6.9-2.8-6.9-7.8V15h4.9v12.4c0,2.6,1.6,4.3,3.9,4.3
		c2.2,0,4.4-1.6,4.4-4.7L114.3,15L114.3,15z"/>
	<path d="M129.4,35.7h-4.9V8.1h4.9V35.7z"/>
	<path d="M134.8,15h4.8v3.4h0.3c0.7-1.5,2.3-3.7,5.9-3.7c4.8,0,8.6,3.8,8.6,10.7c0,6.8-3.7,10.7-8.5,10.7c-3.6,0-5.2-2.1-5.9-3.6
		h-0.2v11h-4.9V15H134.8z M144.4,32.1c3.2,0,4.9-2.8,4.9-6.7s-1.7-6.6-4.9-6.6c-3.1,0-4.9,2.6-4.9,6.6S141.3,32.1,144.4,32.1z"/>
	<path d="M158.9,15h4.9v20.7h-4.9V15z"/>
	<path d="M168.2,25.5c0-6.4,3.9-10.8,9.8-10.8c5.1,0,9.5,3.2,9.5,10.5v1.5h-14.4c0,3.5,2.1,5.6,5.3,5.6c2.1,0,3.7-0.9,4.4-2.7
		l4.6,0.5c-0.9,3.6-4.2,6-9,6C172,36.1,168.2,32,168.2,25.5z M182.8,23.4c0-2.8-1.9-4.9-4.7-4.9c-2.9,0-4.9,2.2-5,4.9H182.8z"/>
</g>
<circle class="st0" cx="161.3" cy="9.2" r="3.1"/>
</svg>
