<?xml version="1.0" encoding="utf-8"?>
<!-- Generator: Adobe Illustrator 22.0.0, SVG Export Plug-In . SVG Version: 6.00 Build 0)  -->
<svg version="1.1" id="Layer_1" xmlns="http://www.w3.org/2000/svg" xmlns:xlink="http://www.w3.org/1999/xlink" x="0px" y="0px"
	 viewBox="0 0 215.1 66.4" style="enable-background:new 0 0 215.1 66.4;" xml:space="preserve">
<style type="text/css">
	.st0{fill:#3B82F6;}
	.st1{fill:#FFFFFF;}
	.st2{fill:#93C5FD;}
	.st3{fill:#DBEAFE;}
</style>
<g>
	<path class="st0" d="M66.4,33.2c0,18.3-14.8,33.2-33.2,33.2S0,51.5,0,33.2C0,13.5,17.5,0.4,33.2,0h17v16.7h16.2V33.2z"/>
	<g id="XMLID_1_">
		<g>
			<path class="st1" d="M50.6,34.4c0,0-1.4,13.2-15.3,15.6h-0.1V33.1l15.4-16.5V34.4z"/>
			<polygon class="st2" points="35.3,33.1 35.3,50 17.4,33.1 			"/>
			<path class="st3" d="M17.4,33.1L17.4,33.1c0,0,0.3-13.6,14.6-16.5h18.7L35.3,33.1H17.4z"/>
			<polygon class="st2" points="17.4,33.1 17.4,33.1 35.3,50 17.4,50 			"/>
		</g>
	</g>
</g>
<g>
	<path d="M104.4,42.5l4.4-1.1c0.6,1.1,1.9,2.5,4.8,2.5c2.8,0,4.8-1.3,4.8-4.2v-3.9h-0.2c-0.8,1.5-2.4,3.4-6,3.4
		c-4.8,0-8.5-3.4-8.5-10.1c0-6.8,3.8-10.6,8.6-10.6c3.7,0,5.2,2.2,5.9,3.7h0.3v-3.4h4.8v21.1c0,5.2-4.1,7.8-9.7,7.8
		C108.3,47.6,105.3,45.3,104.4,42.5z M118.5,29c0-3.9-1.7-6.5-4.9-6.5c-3.3,0-4.9,2.8-4.9,6.5c0,3.8,1.7,6.3,4.9,6.3
		C116.7,35.4,118.5,33,118.5,29z"/>
	<path d="M141.9,18.8h4.9v20.7h-4.7v-3.7h-0.2c-0.9,2.3-3.1,4-6.2,4c-4.1,0-6.9-2.8-6.9-7.8V18.8h4.9v12.4c0,2.6,1.6,4.3,3.9,4.3
		c2.2,0,4.4-1.6,4.4-4.7L141.9,18.8L141.9,18.8z"/>
	<path d="M157,39.5h-4.9V11.9h4.9V39.5z"/>
	<path d="M162.4,18.8h4.8v3.4h0.3c0.7-1.5,2.3-3.7,5.9-3.7c4.8,0,8.6,3.8,8.6,10.7c0,6.8-3.7,10.7-8.5,10.7c-3.6,0-5.2-2.1-5.9-3.6
		h-0.2v11h-4.9V18.8H162.4z M172,35.9c3.2,0,4.9-2.8,4.9-6.7s-1.7-6.6-4.9-6.6c-3.1,0-4.9,2.6-4.9,6.6S168.9,35.9,172,35.9z"/>
	<path d="M186.5,18.8h4.9v20.7h-4.9V18.8z"/>
	<path d="M195.8,29.3c0-6.4,3.9-10.8,9.8-10.8c5.1,0,9.5,3.2,9.5,10.5v1.5h-14.4c0,3.5,2.1,5.6,5.3,5.6c2.1,0,3.7-0.9,4.4-2.7
		l4.6,0.5c-0.9,3.6-4.2,6-9,6C199.6,39.9,195.8,35.8,195.8,29.3z M210.4,27.2c0-2.8-1.9-4.9-4.7-4.9c-2.9,0-4.9,2.2-5,4.9H210.4z"/>
</g>
<circle class="st0" cx="188.9" cy="12.8" r="3.1"/>
</svg>
