<svg xmlns="http://www.w3.org/2000/svg"  viewBox="0 0 31 30" fill="none">
<path fill-rule="evenodd" clip-rule="evenodd" d="M15.473 25.2128L8.16304 29.0558C7.55975 29.3745 6.82778 29.3225 6.2756 28.9218C5.72342 28.521 5.44708 27.8412 5.56304 27.1688L6.96304 19.0298L1.05204 13.2628C0.564255 12.7872 0.388733 12.076 0.599261 11.4281C0.809789 10.7801 1.36986 10.3079 2.04404 10.2098L10.216 9.02284L13.873 1.61984C14.1741 1.00837 14.7965 0.621094 15.478 0.621094C16.1596 0.621094 16.782 1.00837 17.083 1.61984L20.738 9.02484L28.91 10.2118C29.5842 10.3099 30.1443 10.7821 30.3548 11.4301C30.5653 12.078 30.3898 12.7892 29.902 13.2648L23.989 19.0288L25.389 27.1678C25.505 27.8402 25.2287 28.52 24.6765 28.9208C24.1243 29.3215 23.3923 29.3735 22.789 29.0548L15.473 25.2128Z"/>
</svg>